<svg xmlns="http://www.w3.org/2000/svg" xmlns:xlink="http://www.w3.org/1999/xlink" width="640" height="450.78"><rect width="640" height="450.78" rx="5" ry="5" class="a"/><svg y="0%" x="0%"><circle cx="20" cy="20" r="6" fill="#ff5f58"/><circle cx="40" cy="20" r="6" fill="#ffbd2e"/><circle cx="60" cy="20" r="6" fill="#18c132"/></svg><svg height="390.78" viewBox="0 0 60 39.078" width="600" x="15" xmlns="http://www.w3.org/2000/svg" xmlns:xlink="http://www.w3.org/1999/xlink" y="50"><style>.a{fill:#282d35}.i,.j,.l{white-space:pre}.i{fill:#dbab79;font-weight:700}.j,.l{fill:#b9c0cb}.l{fill:#66c2cd;font-weight:700}</style><g font-family="Monaco,Consolas,Menlo,'Bitstream Vera Sans Mono','Powerline Symbols',monospace" font-size="1.67"><defs><symbol id="a"><path fill="transparent" d="M0 0h60v19H0z"/></symbol><symbol id="b"><path fill="#6f7683" d="M0 0h1.102v2.171H0z"/></symbol></defs><path class="a" d="M0 0h60v39.078H0z"/><svg width="60"><svg><use xlink:href="#a"/><use xlink:href="#b" x="-.004" y="39.053"/><text y="1.67" style="white-space:pre" fill="#e88388" font-weight="700">═══════════════╝</text><text x="2.004" y="6.012" class="i">BREAKING:</text><text x="12.024" y="6.012" class="i">NIST</text><text x="17.034" y="6.012" class="i">confirms</text><text x="26.052" y="6.012" class="i">—</text><text x="28.056" y="6.012" class="i">RSA-2048</text><text x="37.074" y="6.012" class="i">vulnerable</text><text x="48.096" y="6.012" class="i">to</text><text x="51.102" y="6.012" class="i">Shor&apos;s</text><text x="58.116" y="6.012" class="i">al</text><text y="8.183" class="i">gorithm.</text><text x="2.004" y="10.354" class="i">Cryptographically</text><text x="20.04" y="10.354" class="i">Relevant</text><text x="29.058" y="10.354" class="i">Quantum</text><text x="37.074" y="10.354" class="i">Computer:</text><text x="47.094" y="10.354" class="i">18-month</text><text x="56.112" y="10.354" class="i">time</text><text y="12.525" class="i">line.</text><text x="2.004" y="14.696" class="i">All</text><text x="6.012" y="14.696" class="i">RSA-signed</text><text x="17.034" y="14.696" class="i">binaries</text><text x="26.052" y="14.696" class="i">must</text><text x="31.062" y="14.696" class="i">be</text><text x="34.068" y="14.696" class="i">migrated</text><text x="43.086" y="14.696" class="i">to</text><text x="46.092" y="14.696" class="i">post-quantum</text><text x="59.118" y="14.696" class="i">a</text><text y="16.867" class="i">lgorithms.</text><text y="21.209" class="j">#</text><text x="2.004" y="21.209" class="j">The</text><text x="6.012" y="21.209" class="j">on-call</text><text x="14.028" y="21.209" class="j">pager</text><text x="20.04" y="21.209" class="j">fires.</text><text x="27.054" y="21.209" class="j">It&apos;s</text><text x="32.064" y="21.209" class="j">3</text><text x="34.068" y="21.209" class="j">AM.</text><text x="38.076" y="21.209" class="j">The</text><text x="42.084" y="21.209" class="j">sysadmin</text><text x="51.102" y="21.209" class="j">has</text><text x="55.11" y="21.209" class="j">47</text><text x="58.116" y="21.209" class="j">ce</text><text y="23.38" class="j">rtificates</text><text x="11.022" y="23.38" class="j">to</text><text x="14.028" y="23.38" class="j">re-sign.</text><text y="25.551" class="j">#</text><text x="2.004" y="25.551" class="j">Good</text><text x="7.014" y="25.551" class="j">thing</text><text x="13.026" y="25.551" class="j">they</text><text x="18.036" y="25.551" class="j">already</text><text x="26.052" y="25.551" class="j">have</text><text x="31.062" y="25.551" class="j">pki-sign</text><text x="40.08" y="25.551" class="j">with</text><text x="45.09" y="25.551" class="j">ML-DSA</text><text x="52.104" y="25.551" class="j">support.</text><text y="29.893" style="white-space:pre" fill="#a8cc8c" font-weight="700">❯</text><text x="2.004" y="29.893" class="j">ls</text><text x="5.01" y="29.893" class="j">certs/</text><text x="2.004" y="32.064" class="j">pqc-ml-dsa65.pfx</text><text x="23.046" y="32.064" class="j">pqc-ml-dsa87.pfx</text><text x="2.004" y="34.235" class="j">corp-rsa2048.pfx</text><text x="23.046" y="34.235" class="j">corp-rsa2048-old.pfx</text><text y="38.577" class="l">#</text><text x="2.004" y="38.577" class="l">Perfect.</text><text x="11.022" y="38.577" class="l">ML-DSA-65</text><text x="21.042" y="38.577" class="l">PFX</text><text x="25.05" y="38.577" class="l">loaded</text><text x="32.064" y="38.577" class="l">and</text><text x="36.072" y="38.577" class="l">ready.</text><text x="43.086" y="38.577" class="l">Let&apos;s</text><text x="49.098" y="38.577" class="l">migrate.</text></svg></svg></g></svg></svg>