<svg xmlns="http://www.w3.org/2000/svg" xmlns:xlink="http://www.w3.org/1999/xlink" width="640" height="450.78"><rect width="640" height="450.78" rx="5" ry="5" class="a"/><svg y="0%" x="0%"><circle cx="20" cy="20" r="6" fill="#ff5f58"/><circle cx="40" cy="20" r="6" fill="#ffbd2e"/><circle cx="60" cy="20" r="6" fill="#18c132"/></svg><svg height="390.78" viewBox="0 0 60 39.078" width="600" x="15" xmlns="http://www.w3.org/2000/svg" xmlns:xlink="http://www.w3.org/1999/xlink" y="50"><style>.a{fill:#282d35}.h,.k,.l{fill:#b9c0cb;white-space:pre}.k,.l{fill:#dbab79;font-weight:700}.l{fill:#a8cc8c}</style><g font-family="Monaco,Consolas,Menlo,'Bitstream Vera Sans Mono','Powerline Symbols',monospace" font-size="1.67"><defs><symbol id="a"><path fill="transparent" d="M0 0h60v19H0z"/></symbol><symbol id="b"><path fill="#6f7683" d="M0 0h1.102v2.171H0z"/></symbol></defs><path class="a" d="M0 0h60v39.078H0z"/><svg width="60"><svg><use xlink:href="#a"/><use xlink:href="#b" x="-.004" y="39.053"/><text y="3.841" class="h">#</text><text x="2.004" y="3.841" class="h">Current</text><text x="10.02" y="3.841" class="h">WR:</text><text x="14.028" y="3.841" class="h">4.821s</text><text x="21.042" y="3.841" class="h">by</text><text x="24.048" y="3.841" class="h">pki-sign-bot</text><text x="37.074" y="3.841" class="h">(machine-assisted,</text><text x="56.112" y="3.841" class="h">disp</text><text y="6.012" class="h">uted)</text><text y="8.183" class="h">#</text><text x="2.004" y="8.183" class="h">Runner:</text><text x="10.02" y="8.183" class="h">dev@workstation</text><text x="26.052" y="8.183" class="h">|</text><text x="28.056" y="8.183" class="h">PFX:</text><text x="33.066" y="8.183" class="h">corp-code.pfx</text><text x="47.094" y="8.183" class="h">|</text><text x="49.098" y="8.183" class="h">TSA:</text><text x="54.108" y="8.183" class="h">tsa.co</text><text y="10.354" class="h">rp.internal</text><text y="14.696" style="white-space:pre" fill="#66c2cd" font-weight="700">COUNTDOWN:</text><text x="2.004" y="19.038" style="white-space:pre" fill="#e88388" font-weight="700">3...</text><text x="2.004" y="21.209" class="k">2...</text><text x="2.004" y="23.38" class="l">1...</text><text x="2.004" y="25.551" class="l">GO!!</text><text y="29.893" class="l">❯</text><text x="2.004" y="29.893" class="h">pki-sign</text><text x="11.022" y="29.893" class="h">sign</text><text x="16.032" y="29.893" class="h">--pfx</text><text x="22.044" y="29.893" class="h">corp-code.pfx</text><text x="36.072" y="29.893" class="h">app.exe</text><text x="44.088" y="29.893" class="h">-o</text><text x="47.094" y="29.893" class="h">app.signed.ex</text><text y="32.064" class="h">e</text><text x="2.004" y="34.235" class="l">✔</text><text x="4.008" y="34.235" class="h">app.exe</text><text x="18.036" y="34.235" class="h">PE32+</text><text x="24.048" y="34.235" class="h">AMD64</text><text x="31.062" y="34.235" class="h">SHA256withRSA</text><text x="46.092" y="34.235" class="h">TSA:✔</text><text x="53.106" y="34.235" class="l">247ms</text><text x="2.004" y="38.577" class="k">⚡</text><text x="4.008" y="38.577" class="k">Split</text><text x="10.02" y="38.577" class="k">1</text><text x="12.024" y="38.577" class="k">—</text><text x="14.028" y="38.577" class="k">PE32+:</text><text x="21.042" y="38.577" class="k">0:00.247</text><text x="31.062" y="38.577" class="k">(+0.000</text><text x="39.078" y="38.577" class="k">vs</text><text x="42.084" y="38.577" class="k">WR)</text></svg></svg></g></svg></svg>