<svg xmlns="http://www.w3.org/2000/svg" xmlns:xlink="http://www.w3.org/1999/xlink" width="640" height="450.78"><rect width="640" height="450.78" rx="5" ry="5" class="a"/><svg y="0%" x="0%"><circle cx="20" cy="20" r="6" fill="#ff5f58"/><circle cx="40" cy="20" r="6" fill="#ffbd2e"/><circle cx="60" cy="20" r="6" fill="#18c132"/></svg><svg height="390.78" viewBox="0 0 60 39.078" width="600" x="15" xmlns="http://www.w3.org/2000/svg" xmlns:xlink="http://www.w3.org/1999/xlink" y="50"><style>.a{fill:#282d35}.h,.j{fill:#b9c0cb;white-space:pre}.j{fill:#e88388;font-weight:700}</style><g font-family="Monaco,Consolas,Menlo,'Bitstream Vera Sans Mono','Powerline Symbols',monospace" font-size="1.67"><defs><symbol id="a"><path fill="transparent" d="M0 0h60v19H0z"/></symbol><symbol id="b"><path fill="#6f7683" d="M0 0h1.102v2.171H0z"/></symbol></defs><path class="a" d="M0 0h60v39.078H0z"/><svg width="60"><svg><use xlink:href="#a"/><use xlink:href="#b" x="-.004" y="19.514"/><text y="1.67" class="h">#</text><text x="2.004" y="1.67" class="h">Monday,</text><text x="10.02" y="1.67" class="h">9:04</text><text x="15.03" y="1.67" class="h">AM.</text><text x="19.038" y="1.67" class="h">Kevin</text><text x="25.05" y="1.67" class="h">has</text><text x="29.058" y="1.67" class="h">been</text><text x="34.068" y="1.67" class="h">at</text><text x="37.074" y="1.67" class="h">the</text><text x="41.082" y="1.67" class="h">company</text><text x="49.098" y="1.67" class="h">for</text><text x="53.106" y="1.67" class="h">3</text><text x="55.11" y="1.67" class="h">days.</text><text y="3.841" class="h">#</text><text x="2.004" y="3.841" class="h">He&apos;s</text><text x="7.014" y="3.841" class="h">been</text><text x="12.024" y="3.841" class="h">trusted</text><text x="20.04" y="3.841" class="h">with</text><text x="25.05" y="3.841" class="h">his</text><text x="29.058" y="3.841" class="h">first</text><text x="35.07" y="3.841" class="h">production</text><text x="46.092" y="3.841" class="h">deployment.</text><text x="58.116" y="3.841" class="h">Wh</text><text y="6.012" class="h">at</text><text x="3.006" y="6.012" class="h">could</text><text x="9.018" y="6.012" class="h">go</text><text x="12.024" y="6.012" class="h">wrong?</text><text y="10.354" style="white-space:pre" fill="#a8cc8c" font-weight="700">❯</text><text x="2.004" y="10.354" class="h">deploy</text><text x="9.018" y="10.354" class="h">--env</text><text x="15.03" y="10.354" class="h">prod</text><text x="20.04" y="10.354" class="h">input.exe</text><text y="12.525" class="j">✗</text><text x="2.004" y="12.525" class="j">DEPLOYMENT</text><text x="13.026" y="12.525" class="j">BLOCKED</text><text y="14.696" class="j">══════════════════════════════════════════════════════</text><text x="2.004" y="16.867" class="j">ERROR:</text><text x="9.018" y="16.867" class="j">Authenticode</text><text x="22.044" y="16.867" class="j">signature</text><text x="32.064" y="16.867" class="j">missing</text><text x="40.08" y="16.867" class="j">or</text><text x="43.086" y="16.867" class="j">invalid</text><text x="2.004" y="19.038" class="j">Binary:</text><text x="10.02" y="19.038" class="j">input.exe</text></svg></svg></g></svg></svg>