<svg xmlns="http://www.w3.org/2000/svg" xmlns:xlink="http://www.w3.org/1999/xlink" width="640" height="450.78"><rect width="640" height="450.78" rx="5" ry="5" class="a"/><svg y="0%" x="0%"><circle cx="20" cy="20" r="6" fill="#ff5f58"/><circle cx="40" cy="20" r="6" fill="#ffbd2e"/><circle cx="60" cy="20" r="6" fill="#18c132"/></svg><svg height="390.78" viewBox="0 0 60 39.078" width="600" x="15" xmlns="http://www.w3.org/2000/svg" xmlns:xlink="http://www.w3.org/1999/xlink" y="50"><style>.a{fill:#282d35}.f,.i{white-space:pre}.f{fill:#66c2cd;font-weight:700}.i{fill:#b9c0cb}</style><g font-family="Monaco,Consolas,Menlo,'Bitstream Vera Sans Mono','Powerline Symbols',monospace" font-size="1.67"><defs><symbol id="1"><text x="2.004" y="1.67" class="f">│</text></symbol><symbol id="2"><text y="1.67" class="f">│</text></symbol><symbol id="a"><path fill="transparent" d="M0 0h60v19H0z"/></symbol><symbol id="b"><path fill="#6f7683" d="M0 0h1.102v2.171H0z"/></symbol></defs><path class="a" d="M0 0h60v39.078H0z"/><svg width="60"><svg><use xlink:href="#a"/><use xlink:href="#b" x="-.004" y="39.053"/><use xlink:href="#1"/><use xlink:href="#2" y="2.171"/><text x="2.004" y="6.012" class="f">│</text><text x="7.014" y="6.012" class="f">R.I.P.</text><text x="1.002" y="8.183" class="f">│</text><text x="2.004" y="10.354" class="f">│</text><text x="7.014" y="10.354" class="f">UNSIGNED</text><text x="16.032" y="10.354" class="f">CODE</text><use xlink:href="#2" y="10.855"/><text x="2.004" y="14.696" class="f">│</text><text x="7.014" y="14.696" class="f">Gone</text><text x="12.024" y="14.696" class="f">but</text><text x="16.032" y="14.696" class="f">not</text><text x="20.04" y="14.696" class="f">forgotten</text><use xlink:href="#2" y="15.197"/><text x="2.004" y="19.038" class="f">│</text><text x="7.014" y="19.038" class="f">(well,</text><text x="14.028" y="19.038" class="f">actually,</text><text x="24.048" y="19.038" class="f">forgotten</text><text x="34.068" y="19.038" class="f">immediately)</text><use xlink:href="#2" y="19.539"/><use xlink:href="#1" y="21.71"/><use xlink:href="#2" y="23.881"/><text x="2.004" y="27.722" class="f">└─────────────────────────────────────────────────────────</text><text y="29.893" class="f">┘</text><text y="34.235" class="i">#</text><text x="2.004" y="34.235" class="i">The</text><text x="6.012" y="34.235" class="i">signing</text><text x="14.028" y="34.235" class="i">service</text><text x="22.044" y="34.235" class="i">—</text><text x="24.048" y="34.235" class="i">one</text><text x="28.056" y="34.235" class="i">endpoint</text><text x="37.074" y="34.235" class="i">to</text><text x="40.08" y="34.235" class="i">rule</text><text x="45.09" y="34.235" class="i">them</text><text x="50.1" y="34.235" class="i">all.</text><text y="38.577" style="white-space:pre" fill="#a8cc8c" font-weight="700">❯</text><text x="2.004" y="38.577" class="i">pki-sign</text><text x="11.022" y="38.577" class="i">serve</text><text x="17.034" y="38.577" class="i">--port</text><text x="24.048" y="38.577" class="i">6447</text></svg></svg></g></svg></svg>