<svg xmlns="http://www.w3.org/2000/svg" xmlns:xlink="http://www.w3.org/1999/xlink" width="640" height="450.78"><rect width="640" height="450.78" rx="5" ry="5" class="a"/><svg y="0%" x="0%"><circle cx="20" cy="20" r="6" fill="#ff5f58"/><circle cx="40" cy="20" r="6" fill="#ffbd2e"/><circle cx="60" cy="20" r="6" fill="#18c132"/></svg><svg height="390.78" viewBox="0 0 60 39.078" width="600" x="15" xmlns="http://www.w3.org/2000/svg" xmlns:xlink="http://www.w3.org/1999/xlink" y="50"><style>.a{fill:#282d35}.h,.i{fill:#b9c0cb;white-space:pre}.i{fill:#e88388;font-weight:700}</style><g font-family="Monaco,Consolas,Menlo,'Bitstream Vera Sans Mono','Powerline Symbols',monospace" font-size="1.67"><defs><symbol id="a"><path fill="transparent" d="M0 0h60v19H0z"/></symbol><symbol id="b"><path fill="#6f7683" d="M0 0h1.102v2.171H0z"/></symbol></defs><path class="a" d="M0 0h60v39.078H0z"/><svg width="60"><svg><use xlink:href="#a"/><use xlink:href="#b" x="-.004" y="30.369"/><text y="1.67" class="h">#</text><text x="2.004" y="1.67" class="h">2:47</text><text x="7.014" y="1.67" class="h">AM.</text><text x="11.022" y="1.67" class="h">A</text><text x="13.026" y="1.67" class="h">basement.</text><text x="23.046" y="1.67" class="h">The</text><text x="27.054" y="1.67" class="h">glow</text><text x="32.064" y="1.67" class="h">of</text><text x="35.07" y="1.67" class="h">a</text><text x="37.074" y="1.67" class="h">monitor</text><text x="45.09" y="1.67" class="h">illuminates</text><text x="57.114" y="1.67" class="h">a</text><text x="59.118" y="1.67" class="h">h</text><text y="3.841" class="h">oodie.</text><text y="6.012" class="h">#</text><text x="2.004" y="6.012" class="h">Meet</text><text x="7.014" y="6.012" class="h">Chad.</text><text x="13.026" y="6.012" class="h">Self-described</text><text x="28.056" y="6.012" class="h">&quot;security</text><text x="38.076" y="6.012" class="h">researcher&quot;.</text><text x="51.102" y="6.012" class="h">Eats</text><text x="56.112" y="6.012" class="h">Mons</text><text y="8.183" class="h">ter</text><text x="4.008" y="8.183" class="h">Energy</text><text x="11.022" y="8.183" class="h">for</text><text x="15.03" y="8.183" class="h">breakfast.</text><text y="12.525" class="i">❯</text><text x="2.004" y="12.525" class="h">hexedit</text><text x="10.02" y="12.525" class="h">signed.exe</text><text x="2.004" y="14.696" class="h">Opening</text><text x="10.02" y="14.696" class="h">signed.exe</text><text x="21.042" y="14.696" class="h">in</text><text x="24.048" y="14.696" class="h">hex</text><text x="28.056" y="14.696" class="h">editor...</text><text x="2.004" y="16.867" class="h">Offset</text><text x="9.018" y="16.867" class="h">0x00004800:</text><text x="21.042" y="16.867" class="h">51</text><text x="24.048" y="16.867" class="h">75</text><text x="27.054" y="16.867" class="h">61</text><text x="30.06" y="16.867" class="h">6E</text><text x="33.066" y="16.867" class="h">74</text><text x="36.072" y="16.867" class="h">75</text><text x="39.078" y="16.867" class="h">6D</text><text x="42.084" y="16.867" class="h">4E</text><text x="46.092" y="16.867" class="h">QuantumN</text><text x="2.004" y="19.038" class="i">Patching</text><text x="11.022" y="19.038" class="i">offset</text><text x="18.036" y="19.038" class="i">0x00004800...</text><text x="2.004" y="21.209" class="i">Writing:</text><text x="11.022" y="21.209" class="i">43</text><text x="14.028" y="21.209" class="i">68</text><text x="17.034" y="21.209" class="i">61</text><text x="20.04" y="21.209" class="i">64</text><text x="23.046" y="21.209" class="i">57</text><text x="26.052" y="21.209" class="i">61</text><text x="29.058" y="21.209" class="i">73</text><text x="32.064" y="21.209" class="i">48</text><text x="36.072" y="21.209" class="h">ChadWasH</text><text x="2.004" y="23.38" class="i">Writing:</text><text x="11.022" y="23.38" class="i">65</text><text x="14.028" y="23.38" class="i">72</text><text x="17.034" y="23.38" class="i">65</text><text x="20.04" y="23.38" class="i">00</text><text x="23.046" y="23.38" class="i">00</text><text x="26.052" y="23.38" class="i">00</text><text x="29.058" y="23.38" class="i">00</text><text x="32.064" y="23.38" class="i">00</text><text x="36.072" y="23.38" class="h">ere.....</text><text x="2.004" y="25.551" class="h">Saved</text><text x="8.016" y="25.551" class="h">as</text><text x="11.022" y="25.551" class="h">tampered.exe</text><text y="29.893" class="h">#</text><text x="2.004" y="29.893" class="h">Chad</text><text x="7.014" y="29.893" class="h">cracks</text><text x="14.028" y="29.893" class="h">his</text><text x="18.036" y="29.893" class="h">knuckles.</text></svg></svg></g></svg></svg>