<svg xmlns="http://www.w3.org/2000/svg" xmlns:xlink="http://www.w3.org/1999/xlink" width="640" height="450.78"><rect width="640" height="450.78" rx="5" ry="5" class="a"/><svg y="0%" x="0%"><circle cx="20" cy="20" r="6" fill="#ff5f58"/><circle cx="40" cy="20" r="6" fill="#ffbd2e"/><circle cx="60" cy="20" r="6" fill="#18c132"/></svg><svg height="390.78" viewBox="0 0 60 39.078" width="600" x="15" xmlns="http://www.w3.org/2000/svg" xmlns:xlink="http://www.w3.org/1999/xlink" y="50"><style>.a{fill:#282d35}.h,.i{fill:#b9c0cb;white-space:pre}.i{fill:#dbab79;font-weight:700}</style><g font-family="Monaco,Consolas,Menlo,'Bitstream Vera Sans Mono','Powerline Symbols',monospace" font-size="1.67"><defs><symbol id="a"><path fill="transparent" d="M0 0h60v19H0z"/></symbol><symbol id="b"><path fill="#6f7683" d="M0 0h1.102v2.171H0z"/></symbol></defs><path class="a" d="M0 0h60v39.078H0z"/><svg width="60"><svg><use xlink:href="#a"/><use xlink:href="#b" x="18.996" y="23.856"/><text y="1.67" class="h">#</text><text x="2.004" y="1.67" class="h">Tuesday,</text><text x="11.022" y="1.67" class="h">10:00</text><text x="17.034" y="1.67" class="h">AM</text><text x="20.04" y="1.67" class="h">sharp.</text><text y="3.841" class="h">#</text><text x="2.004" y="3.841" class="h">The</text><text x="6.012" y="3.841" class="h">calendar</text><text x="15.03" y="3.841" class="h">invite</text><text x="22.044" y="3.841" class="h">said</text><text x="27.054" y="3.841" class="h">&quot;Compliance</text><text x="39.078" y="3.841" class="h">Spot</text><text x="44.088" y="3.841" class="h">Check</text><text x="50.1" y="3.841" class="h">—</text><text x="52.104" y="3.841" class="h">30</text><text x="55.11" y="3.841" class="h">min&quot;</text><text y="6.012" class="h">#</text><text x="2.004" y="6.012" class="h">It</text><text x="5.01" y="6.012" class="h">has</text><text x="9.018" y="6.012" class="h">been</text><text x="14.028" y="6.012" class="h">2</text><text x="16.032" y="6.012" class="h">hours.</text><text x="2.004" y="10.354" class="i">*adjusts</text><text x="11.022" y="10.354" class="i">glasses*</text><text x="2.004" y="12.525" class="i">Karen:</text><text x="9.018" y="12.525" class="i">&quot;I</text><text x="12.024" y="12.525" class="i">need</text><text x="17.034" y="12.525" class="i">to</text><text x="20.04" y="12.525" class="i">verify</text><text x="27.054" y="12.525" class="i">EVERY</text><text x="33.066" y="12.525" class="i">signed</text><text x="40.08" y="12.525" class="i">artifact.</text><text x="50.1" y="12.525" class="i">Every</text><text x="56.112" y="12.525" class="i">sing</text><text y="14.696" class="i">le</text><text x="3.006" y="14.696" class="i">one.</text><text x="10.02" y="16.867" class="i">SOC2</text><text x="15.03" y="16.867" class="i">Type</text><text x="20.04" y="16.867" class="i">II</text><text x="23.046" y="16.867" class="i">doesn&apos;t</text><text x="31.062" y="16.867" class="i">audit</text><text x="37.074" y="16.867" class="i">itself.&quot;</text><text y="21.209" class="h">#</text><text x="2.004" y="21.209" class="h">Fine.</text><text x="8.016" y="21.209" class="h">Let&apos;s</text><text x="14.028" y="21.209" class="h">do</text><text x="17.034" y="21.209" class="h">this.</text><text y="25.551" style="white-space:pre" fill="#a8cc8c" font-weight="700">❯</text><text x="2.004" y="25.551" class="h">pki-sign</text><text x="11.022" y="25.551" class="h">verify</text><text x="18.036" y="25.551" class="h">a</text></svg></svg></g></svg></svg>